# xmcd
#
# Track frame offsets: 
#        150
#        13850
#        29468
#        47302
#        61123
#        78816
#        98179
#        117121
#        130808
#
# Disc length: 1928 seconds
#
# Revision: 0
# Processed by: cddbd v1.5.2PL0 Copyright (c) Steve Scherf et al.
# Submitted via: ExactAudioCopy v1.3
#
DISCID=63078609
DTITLE=Chrys Jones - Trinity
DYEAR=2019
DGENRE=Christian Rap
TTITLE0=The Beginning
TTITLE1=Fear You
TTITLE2=Love Ft. Zae Da Blacksmith and Stract
TTITLE3=Ruach
TTITLE4=Born Again
TTITLE5=Passover ft. Ian Buchanan
TTITLE6=Thankx ft. Stract and Curt Kennedy
TTITLE7=Doxology ft. Stephen the Levite
TTITLE8=Seventh Floor (Mental Elevator)
EXTD=
EXTT0=
EXTT1=
EXTT2=
EXTT3=
EXTT4=
EXTT5=
EXTT6=
EXTT7=
EXTT8=
PLAYORDER=
